<svg width="29" height="29" viewBox="0 0 29 29" fill="none" xmlns="http://www.w3.org/2000/svg">
<path d="M27.9221 28L21.587 21.6138L27.9221 28ZM25.0977 13.0789C25.0977 16.2825 23.833 19.3548 21.5819 21.6201C19.3308 23.8853 16.2776 25.1579 13.094 25.1579C9.91044 25.1579 6.85726 23.8853 4.60613 21.6201C2.355 19.3548 1.09033 16.2825 1.09033 13.0789C1.09033 9.87541 2.355 6.80308 4.60613 4.53784C6.85726 2.2726 9.91044 1 13.094 1C16.2776 1 19.3308 2.2726 21.5819 4.53784C23.833 6.80308 25.0977 9.87541 25.0977 13.0789V13.0789Z" stroke="white" stroke-width="2" stroke-linecap="round"/>
<path d="M13.0156 9V13M13.0156 13V17M13.0156 13H16.9907M13.0156 13H9.04053" stroke="white" stroke-width="2" stroke-linecap="square"/>
</svg>
